{
  "asset": {
    "version": "2.0",
    "generator": "THREE.GLTFExporter"
  },
  "scenes": [
    {
      "nodes": [
        0
      ]
    }
  ],
  "scene": 0,
  "nodes": [
    {
      "children": [
        7
      ],
      "matrix": [
        0.01,
        0,
        0,
        0,
        0,
        0.01,
        0,
        0,
        0,
        0,
        0.01,
        0,
        0,
        0,
        0,
        1
      ]
    },
    {
      "matrix": [
        1.0210986981998147,
        -0.09086242474322655,
        0.7948747465167868,
        0,
        -0.011143080560688495,
        1.2878513710738477,
        0.15998979092922763,
        0,
        -0.8058530578399236,
        -0.13422826470493535,
        1.013993423467576,
        0,
        0.19704382924581587,
        42.15612009202094,
        29.311315051664593,
        0.9999999999999999
      ],
      "name": "Merged Geometry 2",
      "mesh": 0
    },
    {
      "matrix": [
        1.0210986981998147,
        -0.09086242474322655,
        0.7948747465167868,
        0,
        -0.011143080560688495,
        1.2878513710738477,
        0.15998979092922763,
        0,
        -0.8058530578399236,
        -0.13422826470493535,
        1.013993423467576,
        0,
        2.6432130285864766,
        26.910826251732942,
        23.81934467926365,
        0.9999999999999999
      ],
      "name": "Merged Geometry",
      "mesh": 1
    },
    {
      "matrix": [
        1.4429212866998644,
        -0.0017823309646959001,
        -0.001356670064381335,
        0,
        0.0017811693629250249,
        1.4483644763724297,
        -0.0005738489945415245,
        0,
        0.0013709490215029754,
        0.0005780963675695065,
        1.4488821800601788,
        0,
        -0.0426400849571138,
        14.585229536511171,
        -3.3587807967427263,
        1.0000000000000002
      ],
      "name": "Cube 9",
      "mesh": 2
    },
    {
      "name": "Cat",
      "children": [
        1,
        2,
        3
      ]
    },
    {
      "matrix": [
        1,
        0,
        0,
        0,
        0,
        1,
        -6.123233995736762e-17,
        0,
        0,
        6.123233995736762e-17,
        1,
        0,
        0,
        -9.707270417302957e-13,
        999.9999999999915,
        1
      ],
      "camera": 0
    },
    {
      "matrix": [
        1,
        0,
        0,
        0,
        0,
        1,
        0,
        0,
        0,
        0,
        1,
        0,
        0,
        1,
        0,
        1
      ],
      "name": "Default Ambient Light"
    },
    {
      "name": "Scene 1",
      "children": [
        4,
        5,
        6
      ]
    }
  ],
  "bufferViews": [
    {
      "buffer": 0,
      "byteOffset": 0,
      "byteLength": 1248,
      "target": 34962,
      "byteStride": 12
    },
    {
      "buffer": 0,
      "byteOffset": 1248,
      "byteLength": 1248,
      "target": 34962,
      "byteStride": 12
    },
    {
      "buffer": 0,
      "byteOffset": 2496,
      "byteLength": 1200,
      "target": 34963
    },
    {
      "buffer": 0,
      "byteOffset": 3696,
      "byteLength": 47232,
      "target": 34962,
      "byteStride": 12
    },
    {
      "buffer": 0,
      "byteOffset": 50928,
      "byteLength": 47232,
      "target": 34962,
      "byteStride": 12
    },
    {
      "buffer": 0,
      "byteOffset": 98160,
      "byteLength": 31296,
      "target": 34963
    },
    {
      "buffer": 0,
      "byteOffset": 129456,
      "byteLength": 36864,
      "target": 34962,
      "byteStride": 12
    },
    {
      "buffer": 0,
      "byteOffset": 166320,
      "byteLength": 36864,
      "target": 34962,
      "byteStride": 12
    },
    {
      "buffer": 0,
      "byteOffset": 203184,
      "byteLength": 18432,
      "target": 34963
    }
  ],
  "buffers": [
    {
      "byteLength": 221616,
      "uri": "data:application/octet-stream;base64,"
    }
  ],
  "accessors": [
    {
      "bufferView": 0,
      "componentType": 5126,
      "count": 104,
      "max": [
        15.008575439453125,
        2.7600414752960205,
        11.944260597229004
      ],
      "min": [
        -15.069104194641113,
        -2.7600414752960205,
        -11.96788215637207
      ],
      "type": "VEC3"
    },
    {
      "bufferView": 1,
      "componentType": 5126,
      "count": 104,
      "max": [
        0.7172250151634216,
        0.12327207624912262,
        0.8527287840843201
      ],
      "min": [
        0.5075998902320862,
        0.1232718899846077,
        0.685851514339447
      ],
      "type": "VEC3"
    },
    {
      "bufferView": 2,
      "componentType": 5125,
      "count": 300,
      "max": [
        103
      ],
      "min": [
        0
      ],
      "type": "SCALAR"
    },
    {
      "bufferView": 3,
      "componentType": 5126,
      "count": 3936,
      "max": [
        19.86557960510254,
        4.127348899841309,
        17.719173431396484
      ],
      "min": [
        -19.63241195678711,
        -4.224774360656738,
        -17.577056884765625
      ],
      "type": "VEC3"
    },
    {
      "bufferView": 4,
      "componentType": 5126,
      "count": 3936,
      "max": [
        0.9237226843833923,
        0.9992262125015259,
        0.9224517345428467
      ],
      "min": [
        -0.9237205982208252,
        -0.9991238117218018,
        -0.9224516153335571
      ],
      "type": "VEC3"
    },
    {
      "bufferView": 5,
      "componentType": 5125,
      "count": 7824,
      "max": [
        3935
      ],
      "min": [
        0
      ],
      "type": "SCALAR"
    },
    {
      "bufferView": 6,
      "componentType": 5126,
      "count": 3072,
      "max": [
        33.2310676574707,
        51.24388122558594,
        22.78083610534668
      ],
      "min": [
        -33.20901107788086,
        -9.809324264526367,
        -22.784210205078125
      ],
      "type": "VEC3"
    },
    {
      "bufferView": 7,
      "componentType": 5126,
      "count": 3072,
      "max": [
        0.999720573425293,
        0.9999798536300659,
        0.9982868432998657
      ],
      "min": [
        -0.9997211694717407,
        -1,
        -0.9982489943504333
      ],
      "type": "VEC3"
    },
    {
      "bufferView": 8,
      "componentType": 5125,
      "count": 4608,
      "max": [
        3071
      ],
      "min": [
        0
      ],
      "type": "SCALAR"
    }
  ],
  "meshes": [
    {
      "primitives": [
        {
          "mode": 4,
          "attributes": {
            "POSITION": 0,
            "NORMAL": 1
          },
          "extras": {
            "type": "SubdivGeometry",
            "parameters": {
              "width": 30.07767963409424,
              "height": 5.520082950592041,
              "depth": 23.912142753601074
            }
          },
          "indices": 2
        }
      ]
    },
    {
      "primitives": [
        {
          "mode": 4,
          "attributes": {
            "POSITION": 3,
            "NORMAL": 4
          },
          "extras": {
            "type": "SubdivGeometry",
            "parameters": {
              "width": 39.49799156188965,
              "height": 8.352123260498047,
              "depth": 35.29623031616211
            }
          },
          "indices": 5
        }
      ]
    },
    {
      "primitives": [
        {
          "mode": 4,
          "attributes": {
            "POSITION": 6,
            "NORMAL": 7
          },
          "extras": {
            "type": "SubdivGeometry",
            "parameters": {
              "width": 76.06101608276367,
              "height": 64.88956069946289,
              "depth": 50.767295837402344
            }
          },
          "indices": 8
        }
      ]
    }
  ],
  "cameras": [
    {
      "type": "perspective",
      "perspective": {
        "aspectRatio": 1.8584070796460177,
        "yfov": 0.7853981633974483,
        "zfar": 100000,
        "znear": 70
      }
    }
  ]
}