{
  "asset": {
    "version": "2.0",
    "generator": "THREE.GLTFExporter"
  },
  "scenes": [
    {
      "nodes": [
        0
      ]
    }
  ],
  "scene": 0,
  "nodes": [
    {
      "children": [
        10
      ],
      "matrix": [
        0.01,
        0,
        0,
        0,
        0,
        0.01,
        0,
        0,
        0,
        0,
        0.01,
        0,
        0,
        0,
        0,
        1
      ]
    },
    {
      "matrix": [
        4.612616595228908e-16,
        1.0755285551056202e-16,
        2.077337837947587,
        0,
        -8.673617379883985e-18,
        2.0773378379475886,
        -1.2490009027033004e-16,
        0,
        -1.2741675278993567,
        -5.3200983552057625e-18,
        2.829220253407164e-16,
        0,
        1.6008103233996225,
        223.31182331503675,
        -168.1321044555339,
        0.9999999999999997
      ],
      "name": "crest",
      "mesh": 0
    },
    {
      "matrix": [
        1.2450845886048605,
        0,
        0,
        0,
        0,
        1.242695372333749,
        -0.07709633170016204,
        0,
        0,
        0.07709633170016207,
        1.242695372333749,
        0,
        97.73402679750961,
        74.37274505961491,
        64.70951463486409,
        1.0000000000000004
      ],
      "name": "eye",
      "mesh": 1
    },
    {
      "matrix": [
        1.2450845886048605,
        0,
        0,
        0,
        0,
        1.242695372333749,
        -0.07709633170016204,
        0,
        0,
        0.07709633170016207,
        1.242695372333749,
        0,
        -90.3806457261189,
        74.37274505961491,
        64.70951463486409,
        1.0000000000000004
      ],
      "name": "eye",
      "mesh": 2
    },
    {
      "matrix": [
        3.3203121706957215,
        0,
        0,
        0,
        0,
        1.2071249474097367,
        0.44300536663198375,
        0,
        0,
        -0.42417586153725256,
        2.897323874882464,
        0,
        2.2596235366597672,
        -76.95421896679179,
        153.0122450832995,
        0.9999999999999992
      ],
      "name": "beak",
      "mesh": 3
    },
    {
      "matrix": [
        2.331951770446501,
        2.421210374933818e-16,
        2.1820942735444582e-16,
        0,
        6.421630201237951e-17,
        -0.4303531335311584,
        -0.3827746657969317,
        0,
        8.748956883689645e-20,
        -0.42718535963496096,
        1.314663459370829,
        0,
        1.2726817141823186,
        -117.47470337993622,
        138.1335797783306,
        0.9999999999999998
      ],
      "name": "beak",
      "mesh": 4
    },
    {
      "matrix": [
        1.2063359067319732,
        0,
        0,
        0,
        0,
        1.2043761287113448,
        -0.01385646440277057,
        0,
        0,
        0.015930302425868396,
        1.384629975380452,
        0,
        -43.422312773657254,
        -37.00695705346347,
        -125.1216676116841,
        0.9999999999999998
      ],
      "name": "head",
      "mesh": 5
    },
    {
      "matrix": [
        0.5266591012296521,
        0,
        0,
        0,
        0,
        0.5233999816163737,
        0,
        0,
        0,
        0,
        0.3638652565648999,
        0,
        -29.085106756720904,
        159.04082647851246,
        23.1378341898502,
        1
      ],
      "name": "eagle",
      "children": [
        1,
        2,
        3,
        4,
        5,
        6
      ]
    },
    {
      "matrix": [
        1,
        0,
        0,
        0,
        0,
        1,
        -6.123226925502927e-17,
        0,
        0,
        6.123226925502927e-17,
        1,
        0,
        10.996818259953557,
        0.0034823263425454894,
        965.1767365860447,
        1
      ],
      "camera": 0
    },
    {
      "matrix": [
        1,
        0,
        0,
        0,
        0,
        1,
        0,
        0,
        0,
        0,
        1,
        0,
        0,
        1,
        0,
        1
      ],
      "name": "Default Ambient Light"
    },
    {
      "name": "Scene 1",
      "children": [
        7,
        8,
        9
      ]
    }
  ],
  "bufferViews": [
    {
      "buffer": 0,
      "byteOffset": 0,
      "byteLength": 270336,
      "target": 34962,
      "byteStride": 12
    },
    {
      "buffer": 0,
      "byteOffset": 270336,
      "byteLength": 270336,
      "target": 34962,
      "byteStride": 12
    },
    {
      "buffer": 0,
      "byteOffset": 540672,
      "byteLength": 135168,
      "target": 34963
    },
    {
      "buffer": 0,
      "byteOffset": 675840,
      "byteLength": 50700,
      "target": 34962,
      "byteStride": 12
    },
    {
      "buffer": 0,
      "byteOffset": 726540,
      "byteLength": 50700,
      "target": 34962,
      "byteStride": 12
    },
    {
      "buffer": 0,
      "byteOffset": 777240,
      "byteLength": 33800,
      "target": 34962,
      "byteStride": 8
    },
    {
      "buffer": 0,
      "byteOffset": 811040,
      "byteLength": 48384,
      "target": 34963
    },
    {
      "buffer": 0,
      "byteOffset": 859424,
      "byteLength": 50700,
      "target": 34962,
      "byteStride": 12
    },
    {
      "buffer": 0,
      "byteOffset": 910124,
      "byteLength": 50700,
      "target": 34962,
      "byteStride": 12
    },
    {
      "buffer": 0,
      "byteOffset": 960824,
      "byteLength": 33800,
      "target": 34962,
      "byteStride": 8
    },
    {
      "buffer": 0,
      "byteOffset": 994624,
      "byteLength": 48384,
      "target": 34963
    },
    {
      "buffer": 0,
      "byteOffset": 1043008,
      "byteLength": 344064,
      "target": 34962,
      "byteStride": 12
    },
    {
      "buffer": 0,
      "byteOffset": 1387072,
      "byteLength": 344064,
      "target": 34962,
      "byteStride": 12
    },
    {
      "buffer": 0,
      "byteOffset": 1731136,
      "byteLength": 172032,
      "target": 34963
    },
    {
      "buffer": 0,
      "byteOffset": 1903168,
      "byteLength": 196608,
      "target": 34962,
      "byteStride": 12
    },
    {
      "buffer": 0,
      "byteOffset": 2099776,
      "byteLength": 196608,
      "target": 34962,
      "byteStride": 12
    },
    {
      "buffer": 0,
      "byteOffset": 2296384,
      "byteLength": 98304,
      "target": 34963
    },
    {
      "buffer": 0,
      "byteOffset": 2394688,
      "byteLength": 294912,
      "target": 34962,
      "byteStride": 12
    },
    {
      "buffer": 0,
      "byteOffset": 2689600,
      "byteLength": 294912,
      "target": 34962,
      "byteStride": 12
    },
    {
      "buffer": 0,
      "byteOffset": 2984512,
      "byteLength": 147456,
      "target": 34963
    }
  ],
  "buffers": [
    {
      "byteLength": 3131968,
      "uri": "data:application/octet-stream;base64,"
    }
  ],
  "accessors": [
    {
      "bufferView": 0,
      "componentType": 5126,
      "count": 22528,
      "max": [
        110.18844604492188,
        41.311431884765625,
        48.495243072509766
      ],
      "min": [
        -67.65774536132812,
        -76.33069610595703,
        -48.495243072509766
      ],
      "type": "VEC3"
    },
    {
      "bufferView": 1,
      "componentType": 5126,
      "count": 22528,
      "max": [
        0.9999418258666992,
        0.9999988675117493,
        1
      ],
      "min": [
        -0.9997583627700806,
        -0.9988974332809448,
        -1
      ],
      "type": "VEC3"
    },
    {
      "bufferView": 2,
      "componentType": 5125,
      "count": 33792,
      "max": [
        22527
      ],
      "min": [
        0
      ],
      "type": "SCALAR"
    },
    {
      "bufferView": 3,
      "componentType": 5126,
      "count": 4225,
      "max": [
        46.102745056152344,
        46.102745056152344,
        46.102745056152344
      ],
      "min": [
        -46.102745056152344,
        -46.102745056152344,
        -46.102745056152344
      ],
      "type": "VEC3"
    },
    {
      "bufferView": 4,
      "componentType": 5126,
      "count": 4225,
      "max": [
        1,
        1,
        1
      ],
      "min": [
        -1,
        -1,
        -1
      ],
      "type": "VEC3"
    },
    {
      "bufferView": 5,
      "componentType": 5126,
      "count": 4225,
      "max": [
        1.0078125,
        1
      ],
      "min": [
        -0.0078125,
        0
      ],
      "type": "VEC2"
    },
    {
      "bufferView": 6,
      "componentType": 5123,
      "count": 24192,
      "max": [
        4224
      ],
      "min": [
        0
      ],
      "type": "SCALAR"
    },
    {
      "bufferView": 7,
      "componentType": 5126,
      "count": 4225,
      "max": [
        46.102745056152344,
        46.102745056152344,
        46.102745056152344
      ],
      "min": [
        -46.102745056152344,
        -46.102745056152344,
        -46.102745056152344
      ],
      "type": "VEC3"
    },
    {
      "bufferView": 8,
      "componentType": 5126,
      "count": 4225,
      "max": [
        1,
        1,
        1
      ],
      "min": [
        -1,
        -1,
        -1
      ],
      "type": "VEC3"
    },
    {
      "bufferView": 9,
      "componentType": 5126,
      "count": 4225,
      "max": [
        1.0078125,
        1
      ],
      "min": [
        -0.0078125,
        0
      ],
      "type": "VEC2"
    },
    {
      "bufferView": 10,
      "componentType": 5123,
      "count": 24192,
      "max": [
        4224
      ],
      "min": [
        0
      ],
      "type": "SCALAR"
    },
    {
      "bufferView": 11,
      "componentType": 5126,
      "count": 28672,
      "max": [
        46.555931091308594,
        141.16661071777344,
        47.23491668701172
      ],
      "min": [
        -46.555931091308594,
        -39.65031051635742,
        -117.43478393554688
      ],
      "type": "VEC3"
    },
    {
      "bufferView": 12,
      "componentType": 5126,
      "count": 28672,
      "max": [
        0.9992504119873047,
        0.9999242424964905,
        0.9999852180480957
      ],
      "min": [
        -0.9992421269416809,
        -0.9999599456787109,
        -0.9995658993721008
      ],
      "type": "VEC3"
    },
    {
      "bufferView": 13,
      "componentType": 5125,
      "count": 43008,
      "max": [
        28671
      ],
      "min": [
        0
      ],
      "type": "SCALAR"
    },
    {
      "bufferView": 14,
      "componentType": 5126,
      "count": 16384,
      "max": [
        43.24238204956055,
        131.29196166992188,
        38.7057991027832
      ],
      "min": [
        -43.24238586425781,
        -123.64205932617188,
        -113.3275375366211
      ],
      "type": "VEC3"
    },
    {
      "bufferView": 15,
      "componentType": 5126,
      "count": 16384,
      "max": [
        0.9997662305831909,
        0.9997593760490417,
        0.9999933838844299
      ],
      "min": [
        -0.9997601509094238,
        -0.9998948574066162,
        -0.9999977350234985
      ],
      "type": "VEC3"
    },
    {
      "bufferView": 16,
      "componentType": 5125,
      "count": 24576,
      "max": [
        16383
      ],
      "min": [
        0
      ],
      "type": "SCALAR"
    },
    {
      "bufferView": 17,
      "componentType": 5126,
      "count": 24576,
      "max": [
        249.2666778564453,
        238.43777465820312,
        193.89056396484375
      ],
      "min": [
        -175.8836669921875,
        -221.7075653076172,
        -172.76014709472656
      ],
      "type": "VEC3"
    },
    {
      "bufferView": 18,
      "componentType": 5126,
      "count": 24576,
      "max": [
        0.9998382925987244,
        0.999509334564209,
        0.9999842047691345
      ],
      "min": [
        -0.9999606609344482,
        -0.9999823570251465,
        -0.9998961687088013
      ],
      "type": "VEC3"
    },
    {
      "bufferView": 19,
      "componentType": 5125,
      "count": 36864,
      "max": [
        24575
      ],
      "min": [
        0
      ],
      "type": "SCALAR"
    }
  ],
  "meshes": [
    {
      "primitives": [
        {
          "mode": 4,
          "attributes": {
            "POSITION": 0,
            "NORMAL": 1
          },
          "extras": {
            "type": "SubdivGeometry",
            "parameters": {
              "width": 189.42709350585938,
              "height": 146.5258903503418,
              "depth": 96.99048614501953
            }
          },
          "indices": 2
        }
      ]
    },
    {
      "primitives": [
        {
          "mode": 4,
          "attributes": {
            "POSITION": 3,
            "NORMAL": 4,
            "TEXCOORD_0": 5
          },
          "extras": {
            "parameters": {
              "width": 92.20548864270995,
              "widthSegments": 64,
              "heightSegments": 64,
              "phiStart": 0,
              "phiLength": 6.283185307179586,
              "thetaStart": 0,
              "thetaLength": 180,
              "height": 92.20548864270995,
              "depth": 92.20548864270995,
              "type": "SphereGeometry"
            },
            "type": "SphereGeometry"
          },
          "indices": 6
        }
      ]
    },
    {
      "primitives": [
        {
          "mode": 4,
          "attributes": {
            "POSITION": 7,
            "NORMAL": 8,
            "TEXCOORD_0": 9
          },
          "extras": {
            "parameters": {
              "width": 92.20548864270995,
              "widthSegments": 64,
              "heightSegments": 64,
              "phiStart": 0,
              "phiLength": 6.283185307179586,
              "thetaStart": 0,
              "thetaLength": 180,
              "height": 92.20548864270995,
              "depth": 92.20548864270995,
              "type": "SphereGeometry"
            },
            "type": "SphereGeometry"
          },
          "indices": 10
        }
      ]
    },
    {
      "primitives": [
        {
          "mode": 4,
          "attributes": {
            "POSITION": 11,
            "NORMAL": 12
          },
          "extras": {
            "type": "SubdivGeometry",
            "parameters": {
              "width": 131.1576690673828,
              "height": 235.02270126342773,
              "depth": 225.0409393310547
            }
          },
          "indices": 13
        }
      ]
    },
    {
      "primitives": [
        {
          "mode": 4,
          "attributes": {
            "POSITION": 14,
            "NORMAL": 15
          },
          "extras": {
            "type": "SubdivGeometry",
            "parameters": {
              "width": 120.29124450683594,
              "height": 435.36041259765625,
              "depth": 191.7707290649414
            }
          },
          "indices": 16
        }
      ]
    },
    {
      "primitives": [
        {
          "mode": 4,
          "attributes": {
            "POSITION": 17,
            "NORMAL": 18
          },
          "extras": {
            "type": "SubdivGeometry",
            "parameters": {
              "width": 532.6898193359375,
              "height": 548.7664489746094,
              "depth": 406.5379333496094
            }
          },
          "indices": 19
        }
      ]
    }
  ],
  "cameras": [
    {
      "type": "perspective",
      "perspective": {
        "aspectRatio": 1.8584070796460177,
        "yfov": 0.7853981633974483,
        "zfar": 100000,
        "znear": 70
      }
    }
  ]
}