{
  "asset": {
    "version": "2.0",
    "generator": "THREE.GLTFExporter"
  },
  "scenes": [
    {
      "nodes": [
        0
      ]
    }
  ],
  "scene": 0,
  "nodes": [
    {
      "children": [
        12
      ],
      "matrix": [
        0.01,
        0,
        0,
        0,
        0,
        0.01,
        0,
        0,
        0,
        0,
        0.01,
        0,
        0,
        0,
        0,
        1
      ]
    },
    {
      "matrix": [
        0.3790438195941224,
        0,
        0,
        0,
        0,
        0.21810728982890706,
        0.023752674899731114,
        0,
        0,
        -0.006646669390267284,
        0.06103258067647621,
        0,
        4.5202638944472575,
        44.55380199369504,
        64.54126759455187,
        1
      ],
      "name": "mouth",
      "mesh": 0
    },
    {
      "matrix": [
        1.0155557836317898e-15,
        -0.6533795212482973,
        -2.5388894590794746e-16,
        0,
        -0.04295934914217797,
        -4.352381929850513e-16,
        0.6519657146721228,
        0,
        -0.5132421431460537,
        -9.136782417421189e-16,
        -0.033818570402861466,
        0,
        -2.1091495156701967,
        1.4210854715202004e-14,
        27.400193918734658,
        1
      ],
      "name": "Cylinder 3",
      "mesh": 1
    },
    {
      "matrix": [
        1.9902697798773597e-15,
        -1.1204222798778045,
        8.085470980751773e-16,
        0,
        -0.07366715720747744,
        7.46351167454007e-16,
        1.1179978690478514,
        0,
        -0.8801131860613398,
        -1.6157473871456797e-15,
        -0.05799245082029717,
        0,
        -4.547473508864641e-13,
        -1.4210854715202004e-14,
        -4.608977514074809,
        1
      ],
      "name": "Cylinder",
      "mesh": 2
    },
    {
      "matrix": [
        0.40403037825391286,
        0,
        0,
        0,
        0,
        0.40403037825391286,
        0,
        0,
        0,
        0,
        0.40403037825391286,
        0,
        29.873020626250632,
        77.65344443181502,
        45.7127124080015,
        1
      ],
      "name": "eye Instance",
      "children": [
        2,
        3
      ]
    },
    {
      "matrix": [
        1.0155557836317898e-15,
        -0.6533795212482973,
        -2.5388894590794746e-16,
        0,
        -0.04295934914217797,
        -4.352381929850513e-16,
        0.6519657146721228,
        0,
        -0.5132421431460537,
        -9.136782417421189e-16,
        -0.033818570402861466,
        0,
        -2.1091495156701967,
        1.4210854715202004e-14,
        27.400193918734658,
        1
      ],
      "name": "Cylinder 3",
      "mesh": 1
    },
    {
      "matrix": [
        1.9902697798773597e-15,
        -1.1204222798778045,
        8.085470980751773e-16,
        0,
        -0.07366715720747744,
        7.46351167454007e-16,
        1.1179978690478514,
        0,
        -0.8801131860613398,
        -1.6157473871456797e-15,
        -0.05799245082029717,
        0,
        -4.547473508864641e-13,
        -1.4210854715202004e-14,
        -4.608977514074809,
        1
      ],
      "name": "Cylinder",
      "mesh": 2
    },
    {
      "matrix": [
        0.40403037825391286,
        0,
        0,
        0,
        0,
        0.40403037825391286,
        0,
        0,
        0,
        0,
        0.40403037825391286,
        0,
        -24.69001936200821,
        77.65344443181502,
        44.43032666621691,
        1
      ],
      "name": "eye",
      "children": [
        5,
        6
      ]
    },
    {
      "matrix": [
        0.40403037825391286,
        0,
        0,
        0,
        0,
        0.40403037825391286,
        0,
        0,
        0,
        0,
        0.40403037825391286,
        0,
        5.296400590078866,
        95.66424097569235,
        -3.581720935424554,
        1
      ],
      "name": "base",
      "mesh": 3
    },
    {
      "name": "Poop",
      "children": [
        1,
        4,
        7,
        8
      ]
    },
    {
      "matrix": [
        1,
        0,
        0,
        0,
        0,
        1,
        -6.123233995736762e-17,
        0,
        0,
        6.123233995736762e-17,
        1,
        0,
        0,
        -9.707270417302957e-13,
        999.9999999999915,
        1
      ],
      "camera": 0
    },
    {
      "matrix": [
        1,
        0,
        0,
        0,
        0,
        1,
        0,
        0,
        0,
        0,
        1,
        0,
        0,
        1,
        0,
        1
      ],
      "name": "Default Ambient Light"
    },
    {
      "name": "Scene 1",
      "children": [
        9,
        10,
        11
      ]
    }
  ],
  "bufferViews": [
    {
      "buffer": 0,
      "byteOffset": 0,
      "byteLength": 16512,
      "target": 34962,
      "byteStride": 12
    },
    {
      "buffer": 0,
      "byteOffset": 16512,
      "byteLength": 16512,
      "target": 34962,
      "byteStride": 12
    },
    {
      "buffer": 0,
      "byteOffset": 33024,
      "byteLength": 8256,
      "target": 34963
    },
    {
      "buffer": 0,
      "byteOffset": 41280,
      "byteLength": 2448,
      "target": 34962,
      "byteStride": 12
    },
    {
      "buffer": 0,
      "byteOffset": 43728,
      "byteLength": 2448,
      "target": 34962,
      "byteStride": 12
    },
    {
      "buffer": 0,
      "byteOffset": 46176,
      "byteLength": 1632,
      "target": 34962,
      "byteStride": 8
    },
    {
      "buffer": 0,
      "byteOffset": 47808,
      "byteLength": 2016,
      "target": 34963
    },
    {
      "buffer": 0,
      "byteOffset": 49824,
      "byteLength": 4176,
      "target": 34962,
      "byteStride": 12
    },
    {
      "buffer": 0,
      "byteOffset": 54000,
      "byteLength": 4176,
      "target": 34962,
      "byteStride": 12
    },
    {
      "buffer": 0,
      "byteOffset": 58176,
      "byteLength": 2784,
      "target": 34962,
      "byteStride": 8
    },
    {
      "buffer": 0,
      "byteOffset": 60960,
      "byteLength": 3528,
      "target": 34963
    },
    {
      "buffer": 0,
      "byteOffset": 64488,
      "byteLength": 87552,
      "target": 34962,
      "byteStride": 12
    },
    {
      "buffer": 0,
      "byteOffset": 152040,
      "byteLength": 87552,
      "target": 34962,
      "byteStride": 12
    },
    {
      "buffer": 0,
      "byteOffset": 239592,
      "byteLength": 43776,
      "target": 34963
    }
  ],
  "buffers": [
    {
      "byteLength": 283368,
      "uri": "data:application/octet-stream;base64,"
    }
  ],
  "accessors": [
    {
      "bufferView": 0,
      "componentType": 5126,
      "count": 1376,
      "max": [
        102.72726440429688,
        13.221098899841309,
        57.760337829589844
      ],
      "min": [
        -103.24638366699219,
        -109.01466369628906,
        -189.99530029296875
      ],
      "type": "VEC3"
    },
    {
      "bufferView": 1,
      "componentType": 5126,
      "count": 1376,
      "max": [
        0.9994582533836365,
        0.999586820602417,
        1
      ],
      "min": [
        -0.9995723962783813,
        -0.999586820602417,
        -0.9999985098838806
      ],
      "type": "VEC3"
    },
    {
      "bufferView": 2,
      "componentType": 5125,
      "count": 2064,
      "max": [
        1375
      ],
      "min": [
        0
      ],
      "type": "SCALAR"
    },
    {
      "bufferView": 3,
      "componentType": 5126,
      "count": 204,
      "max": [
        56,
        46,
        56
      ],
      "min": [
        -56,
        -46,
        -56
      ],
      "type": "VEC3"
    },
    {
      "bufferView": 4,
      "componentType": 5126,
      "count": 204,
      "max": [
        1,
        1,
        1
      ],
      "min": [
        -1,
        -1,
        -1
      ],
      "type": "VEC3"
    },
    {
      "bufferView": 5,
      "componentType": 5126,
      "count": 204,
      "max": [
        1,
        1
      ],
      "min": [
        0,
        0
      ],
      "type": "VEC2"
    },
    {
      "bufferView": 6,
      "componentType": 5123,
      "count": 1008,
      "max": [
        202
      ],
      "min": [
        0
      ],
      "type": "SCALAR"
    },
    {
      "bufferView": 7,
      "componentType": 5126,
      "count": 348,
      "max": [
        56,
        46,
        56
      ],
      "min": [
        -56,
        -46,
        -56
      ],
      "type": "VEC3"
    },
    {
      "bufferView": 8,
      "componentType": 5126,
      "count": 348,
      "max": [
        1,
        1,
        1
      ],
      "min": [
        -1,
        -1,
        -1
      ],
      "type": "VEC3"
    },
    {
      "bufferView": 9,
      "componentType": 5126,
      "count": 348,
      "max": [
        1,
        1
      ],
      "min": [
        0,
        0
      ],
      "type": "VEC2"
    },
    {
      "bufferView": 10,
      "componentType": 5123,
      "count": 1764,
      "max": [
        346
      ],
      "min": [
        0
      ],
      "type": "SCALAR"
    },
    {
      "bufferView": 11,
      "componentType": 5126,
      "count": 7296,
      "max": [
        232.83798217773438,
        241.64877319335938,
        167.5894317626953
      ],
      "min": [
        -228.95071411132812,
        -239.59140014648438,
        -168.0870361328125
      ],
      "type": "VEC3"
    },
    {
      "bufferView": 12,
      "componentType": 5126,
      "count": 7296,
      "max": [
        0.9999114274978638,
        0.9998149871826172,
        0.9998724460601807
      ],
      "min": [
        -0.9999254941940308,
        -0.9999887943267822,
        -0.9999971389770508
      ],
      "type": "VEC3"
    },
    {
      "bufferView": 13,
      "componentType": 5125,
      "count": 10944,
      "max": [
        7295
      ],
      "min": [
        0
      ],
      "type": "SCALAR"
    }
  ],
  "meshes": [
    {
      "primitives": [
        {
          "mode": 4,
          "attributes": {
            "POSITION": 0,
            "NORMAL": 1
          },
          "extras": {
            "type": "SubdivGeometry",
            "parameters": {
              "width": 206.6831512451172,
              "height": 125.42574119567871,
              "depth": 249.96265411376953
            }
          },
          "indices": 2
        }
      ]
    },
    {
      "primitives": [
        {
          "mode": 4,
          "attributes": {
            "POSITION": 3,
            "NORMAL": 4,
            "TEXCOORD_0": 5
          },
          "extras": {
            "parameters": {
              "width": 112,
              "radialSegments": 16,
              "heightSegments": 1,
              "openEnded": false,
              "thetaStart": 0,
              "thetaLength": 360,
              "cornerRadius": 12,
              "cornerSegments": 2,
              "hollow": 0,
              "height": 92,
              "depth": 112,
              "radiusTop": 56,
              "radiusBottom": 56,
              "type": "CylinderGeometry"
            },
            "type": "CylinderGeometry"
          },
          "indices": 6
        }
      ]
    },
    {
      "primitives": [
        {
          "mode": 4,
          "attributes": {
            "POSITION": 7,
            "NORMAL": 8,
            "TEXCOORD_0": 9
          },
          "extras": {
            "parameters": {
              "width": 112,
              "radialSegments": 28,
              "heightSegments": 1,
              "openEnded": false,
              "thetaStart": 0,
              "thetaLength": 360,
              "cornerRadius": 12,
              "cornerSegments": 2,
              "hollow": 0,
              "height": 92,
              "depth": 112,
              "radiusTop": 56,
              "radiusBottom": 56,
              "type": "CylinderGeometry"
            },
            "type": "CylinderGeometry"
          },
          "indices": 10
        }
      ]
    },
    {
      "primitives": [
        {
          "mode": 4,
          "attributes": {
            "POSITION": 11,
            "NORMAL": 12
          },
          "extras": {
            "type": "SubdivGeometry",
            "parameters": {
              "width": 474.4500427246094,
              "height": 484.136962890625,
              "depth": 342.52880859375
            }
          },
          "indices": 13
        }
      ]
    }
  ],
  "cameras": [
    {
      "type": "perspective",
      "perspective": {
        "aspectRatio": 1.8584070796460177,
        "yfov": 0.7853981633974483,
        "zfar": 100000,
        "znear": 70
      }
    }
  ]
}