{
  "asset": {
    "version": "2.0",
    "generator": "THREE.GLTFExporter"
  },
  "scenes": [
    {
      "nodes": [
        0
      ]
    }
  ],
  "scene": 0,
  "nodes": [
    {
      "children": [
        9
      ],
      "matrix": [
        0.01,
        0,
        0,
        0,
        0,
        0.01,
        0,
        0,
        0,
        0,
        0.01,
        0,
        0,
        0,
        0,
        1
      ]
    },
    {
      "matrix": [
        0.1294769803580774,
        0.18961080117887547,
        -0.016804807036097567,
        0,
        0.22117635634388144,
        -0.16309216048486724,
        -0.13607942445333615,
        0,
        -0.09307890223091221,
        0.04533579638095647,
        -0.205620839001923,
        0,
        -1.8942563397926973,
        -0.7735469592462244,
        0.5646710190361136,
        0.9999999999999999
      ],
      "name": "red meat",
      "mesh": 0
    },
    {
      "matrix": [
        0.17687000534473243,
        0.2590148714094145,
        -0.022955943999248225,
        0,
        0.2701571451539765,
        -0.19920986674127758,
        -0.1662150034127119,
        0,
        -0.12714897960652208,
        0.061930256065839864,
        -0.28088513334710064,
        0,
        -0.666679847287383,
        1.0509319344904036,
        0.41124654682692463,
        0.9999999999999999
      ],
      "name": "white border",
      "mesh": 1
    },
    {
      "matrix": [
        0.17687000534473235,
        0.25901487140941437,
        -0.022955943999248236,
        0,
        0.21587769852914623,
        -0.15918500890248227,
        -0.13281940915277088,
        0,
        -0.12714897960652224,
        0.061930256065839906,
        -0.28088513334710047,
        0,
        -0.3386977375605904,
        0.7355347575100616,
        0.01803469598974372,
        0.9999999999999996
      ],
      "name": "skin",
      "mesh": 2
    },
    {
      "matrix": [
        -0.19711364325916042,
        -0.24179169825623875,
        -0.03977014033480495,
        0,
        0.23399667064961838,
        -0.17058377806854508,
        -0.12265973484212586,
        0,
        0.07273546269035108,
        -0.10647359804669887,
        0.2868302688925779,
        0,
        65.88307723724019,
        -48.3288799421042,
        -36.88074895102172,
        0.9999999999999998
      ],
      "name": "bone",
      "mesh": 3
    },
    {
      "matrix": [
        -0.19711364325916017,
        -0.2417916982562386,
        -0.039770140334804846,
        0,
        -0.22712091093758938,
        0.16111689958902203,
        0.1461373129918726,
        0,
        -0.09198359213883786,
        0.1203195623660969,
        -0.2756100496281742,
        0,
        -65.45636317424008,
        46.33867014323992,
        38.52677722280099,
        1
      ],
      "name": "bone",
      "mesh": 4
    },
    {
      "name": "Meat on bones",
      "children": [
        1,
        2,
        3,
        4,
        5
      ]
    },
    {
      "matrix": [
        0.9999999999999999,
        1.4901161129962856e-12,
        -1.4901161119341852e-8,
        0,
        -1.490116119384766e-8,
        0.00009999999957110983,
        -0.999999995,
        0,
        0,
        0.999999995,
        0.00009999999957122085,
        0,
        0,
        999.9999949999999,
        0.09999999956053214,
        1
      ],
      "camera": 0
    },
    {
      "matrix": [
        1,
        0,
        0,
        0,
        0,
        1,
        0,
        0,
        0,
        0,
        1,
        0,
        0,
        1,
        0,
        1
      ],
      "name": "Default Ambient Light"
    },
    {
      "name": "Scene 1",
      "children": [
        6,
        7,
        8
      ]
    }
  ],
  "bufferViews": [
    {
      "buffer": 0,
      "byteOffset": 0,
      "byteLength": 9984,
      "target": 34962,
      "byteStride": 12
    },
    {
      "buffer": 0,
      "byteOffset": 9984,
      "byteLength": 9984,
      "target": 34962,
      "byteStride": 12
    },
    {
      "buffer": 0,
      "byteOffset": 19968,
      "byteLength": 4992,
      "target": 34963
    },
    {
      "buffer": 0,
      "byteOffset": 24960,
      "byteLength": 18144,
      "target": 34962,
      "byteStride": 12
    },
    {
      "buffer": 0,
      "byteOffset": 43104,
      "byteLength": 18144,
      "target": 34962,
      "byteStride": 12
    },
    {
      "buffer": 0,
      "byteOffset": 61248,
      "byteLength": 9072,
      "target": 34963
    },
    {
      "buffer": 0,
      "byteOffset": 70320,
      "byteLength": 13056,
      "target": 34962,
      "byteStride": 12
    },
    {
      "buffer": 0,
      "byteOffset": 83376,
      "byteLength": 13056,
      "target": 34962,
      "byteStride": 12
    },
    {
      "buffer": 0,
      "byteOffset": 96432,
      "byteLength": 6528,
      "target": 34963
    },
    {
      "buffer": 0,
      "byteOffset": 102960,
      "byteLength": 16128,
      "target": 34962,
      "byteStride": 12
    },
    {
      "buffer": 0,
      "byteOffset": 119088,
      "byteLength": 16128,
      "target": 34962,
      "byteStride": 12
    },
    {
      "buffer": 0,
      "byteOffset": 135216,
      "byteLength": 8064,
      "target": 34963
    },
    {
      "buffer": 0,
      "byteOffset": 143280,
      "byteLength": 16128,
      "target": 34962,
      "byteStride": 12
    },
    {
      "buffer": 0,
      "byteOffset": 159408,
      "byteLength": 16128,
      "target": 34962,
      "byteStride": 12
    },
    {
      "buffer": 0,
      "byteOffset": 175536,
      "byteLength": 8064,
      "target": 34963
    }
  ],
  "buffers": [
    {
      "byteLength": 183600,
      "uri": "data:application/octet-stream;base64,"
    }
  ],
  "accessors": [
    {
      "bufferView": 0,
      "componentType": 5126,
      "count": 832,
      "max": [
        202.9641876220703,
        243.0000457763672,
        202.9641876220703
      ],
      "min": [
        -202.9641876220703,
        -243.0000457763672,
        -202.9641876220703
      ],
      "type": "VEC3"
    },
    {
      "bufferView": 1,
      "componentType": 5126,
      "count": 832,
      "max": [
        1,
        1,
        1
      ],
      "min": [
        -1,
        -1,
        -1
      ],
      "type": "VEC3"
    },
    {
      "bufferView": 2,
      "componentType": 5125,
      "count": 1248,
      "max": [
        831
      ],
      "min": [
        0
      ],
      "type": "SCALAR"
    },
    {
      "bufferView": 3,
      "componentType": 5126,
      "count": 1512,
      "max": [
        200.64715576171875,
        203.07913208007812,
        200.64715576171875
      ],
      "min": [
        -208.25994873046875,
        -204.00485229492188,
        -200.64715576171875
      ],
      "type": "VEC3"
    },
    {
      "bufferView": 4,
      "componentType": 5126,
      "count": 1512,
      "max": [
        1,
        1,
        1
      ],
      "min": [
        -0.9962172508239746,
        -1,
        -1
      ],
      "type": "VEC3"
    },
    {
      "bufferView": 5,
      "componentType": 5125,
      "count": 2268,
      "max": [
        1511
      ],
      "min": [
        0
      ],
      "type": "SCALAR"
    },
    {
      "bufferView": 6,
      "componentType": 5126,
      "count": 1088,
      "max": [
        244.53125,
        254.75355529785156,
        244.53125
      ],
      "min": [
        -244.53125,
        -257.2477722167969,
        -244.53125
      ],
      "type": "VEC3"
    },
    {
      "bufferView": 7,
      "componentType": 5126,
      "count": 1088,
      "max": [
        1,
        1,
        1
      ],
      "min": [
        -1,
        -1,
        -1
      ],
      "type": "VEC3"
    },
    {
      "bufferView": 8,
      "componentType": 5125,
      "count": 1632,
      "max": [
        1087
      ],
      "min": [
        0
      ],
      "type": "SCALAR"
    },
    {
      "bufferView": 9,
      "componentType": 5126,
      "count": 1344,
      "max": [
        120.60041809082031,
        184.73995971679688,
        70.54447174072266
      ],
      "min": [
        -117.38008117675781,
        -107.23665618896484,
        -70.54447174072266
      ],
      "type": "VEC3"
    },
    {
      "bufferView": 10,
      "componentType": 5126,
      "count": 1344,
      "max": [
        0.9981212019920349,
        0.9996991157531738,
        0.9961026310920715
      ],
      "min": [
        -0.9999231100082397,
        -1,
        -0.9961025714874268
      ],
      "type": "VEC3"
    },
    {
      "bufferView": 11,
      "componentType": 5125,
      "count": 2016,
      "max": [
        1343
      ],
      "min": [
        0
      ],
      "type": "SCALAR"
    },
    {
      "bufferView": 12,
      "componentType": 5126,
      "count": 1344,
      "max": [
        120.60041809082031,
        184.73995971679688,
        70.54447174072266
      ],
      "min": [
        -117.38008117675781,
        -107.23665618896484,
        -70.54447174072266
      ],
      "type": "VEC3"
    },
    {
      "bufferView": 13,
      "componentType": 5126,
      "count": 1344,
      "max": [
        0.9981212019920349,
        0.9996991157531738,
        0.9961026310920715
      ],
      "min": [
        -0.9999231100082397,
        -1,
        -0.9961025714874268
      ],
      "type": "VEC3"
    },
    {
      "bufferView": 14,
      "componentType": 5125,
      "count": 2016,
      "max": [
        1343
      ],
      "min": [
        0
      ],
      "type": "SCALAR"
    }
  ],
  "meshes": [
    {
      "primitives": [
        {
          "mode": 4,
          "attributes": {
            "POSITION": 0,
            "NORMAL": 1
          },
          "extras": {
            "type": "SubdivGeometry",
            "parameters": {
              "width": 438.0002136230469,
              "height": 486.0000915527344,
              "depth": 438.0002136230469
            }
          },
          "indices": 2
        }
      ]
    },
    {
      "primitives": [
        {
          "mode": 4,
          "attributes": {
            "POSITION": 3,
            "NORMAL": 4
          },
          "extras": {
            "type": "SubdivGeometry",
            "parameters": {
              "width": 433,
              "height": 422.99998474121094,
              "depth": 433
            }
          },
          "indices": 5
        }
      ]
    },
    {
      "primitives": [
        {
          "mode": 4,
          "attributes": {
            "POSITION": 6,
            "NORMAL": 7
          },
          "extras": {
            "type": "SubdivGeometry",
            "parameters": {
              "width": 489.0625,
              "height": 517.5653686523438,
              "depth": 489.0625
            }
          },
          "indices": 8
        }
      ]
    },
    {
      "primitives": [
        {
          "mode": 4,
          "attributes": {
            "POSITION": 9,
            "NORMAL": 10
          },
          "extras": {
            "type": "SubdivGeometry",
            "parameters": {
              "width": 246.24750518798828,
              "height": 300.4806365966797,
              "depth": 149
            }
          },
          "indices": 11
        }
      ]
    },
    {
      "primitives": [
        {
          "mode": 4,
          "attributes": {
            "POSITION": 12,
            "NORMAL": 13
          },
          "extras": {
            "type": "SubdivGeometry",
            "parameters": {
              "width": 246.24750518798828,
              "height": 300.4806365966797,
              "depth": 149
            }
          },
          "indices": 14
        }
      ]
    }
  ],
  "cameras": [
    {
      "type": "perspective",
      "perspective": {
        "aspectRatio": 1.8584070796460177,
        "yfov": 0.7853981633974483,
        "zfar": 100000,
        "znear": 70
      }
    }
  ]
}