{
  "asset": {
    "version": "2.0",
    "generator": "THREE.GLTFExporter"
  },
  "scenes": [
    {
      "nodes": [
        0
      ]
    }
  ],
  "scene": 0,
  "nodes": [
    {
      "children": [
        6
      ],
      "matrix": [
        0.01,
        0,
        0,
        0,
        0,
        0.01,
        0,
        0,
        0,
        0,
        0.01,
        0,
        0,
        0,
        0,
        1
      ]
    },
    {
      "matrix": [
        -0.9625856578197629,
        -1.440633578445344e-16,
        0,
        0,
        1.1788274447541219e-16,
        -1.1763665894920636,
        0,
        0,
        0,
        0,
        1.9324019247953659,
        0,
        0.6319414368715711,
        -12.059233253517036,
        111.93231967943586,
        1
      ],
      "name": "Cube 2",
      "mesh": 0
    },
    {
      "matrix": [
        0.962585657819753,
        0,
        0,
        0,
        0,
        1.176366589492052,
        0,
        0,
        0,
        0,
        1.9324019247953659,
        0,
        -0.3942854315937473,
        21.33380484139123,
        118.95006625634595,
        1
      ],
      "name": "Cube",
      "mesh": 1
    },
    {
      "name": "Mouth",
      "children": [
        1,
        2
      ]
    },
    {
      "matrix": [
        1,
        0,
        0,
        0,
        0,
        1,
        -6.123233995736765e-17,
        0,
        0,
        6.123233995736765e-17,
        1,
        0,
        -7.44462551302811e-21,
        -3.9351501092909644e-13,
        999.9999999999989,
        1
      ],
      "camera": 0
    },
    {
      "matrix": [
        1,
        0,
        0,
        0,
        0,
        1,
        0,
        0,
        0,
        0,
        1,
        0,
        0,
        1,
        0,
        1
      ],
      "name": "Default Ambient Light"
    },
    {
      "name": "Scene 1",
      "children": [
        3,
        4,
        5
      ]
    }
  ],
  "bufferViews": [
    {
      "buffer": 0,
      "byteOffset": 0,
      "byteLength": 39936,
      "target": 34962,
      "byteStride": 12
    },
    {
      "buffer": 0,
      "byteOffset": 39936,
      "byteLength": 39936,
      "target": 34962,
      "byteStride": 12
    },
    {
      "buffer": 0,
      "byteOffset": 79872,
      "byteLength": 19968,
      "target": 34963
    },
    {
      "buffer": 0,
      "byteOffset": 99840,
      "byteLength": 30720,
      "target": 34962,
      "byteStride": 12
    },
    {
      "buffer": 0,
      "byteOffset": 130560,
      "byteLength": 30720,
      "target": 34962,
      "byteStride": 12
    },
    {
      "buffer": 0,
      "byteOffset": 161280,
      "byteLength": 15360,
      "target": 34963
    }
  ],
  "buffers": [
    {
      "byteLength": 176640,
      "uri": "data:application/octet-stream;base64,"
    }
  ],
  "accessors": [
    {
      "bufferView": 0,
      "componentType": 5126,
      "count": 3328,
      "max": [
        77.08741760253906,
        45.3361930847168,
        -43.54974365234375
      ],
      "min": [
        -77.08741760253906,
        -14.525781631469727,
        -79.57804870605469
      ],
      "type": "VEC3"
    },
    {
      "bufferView": 1,
      "componentType": 5126,
      "count": 3328,
      "max": [
        1,
        0.999975323677063,
        0.9998782277107239
      ],
      "min": [
        -1,
        -0.9999992251396179,
        -1
      ],
      "type": "VEC3"
    },
    {
      "bufferView": 2,
      "componentType": 5125,
      "count": 4992,
      "max": [
        3327
      ],
      "min": [
        0
      ],
      "type": "SCALAR"
    },
    {
      "bufferView": 3,
      "componentType": 5126,
      "count": 2560,
      "max": [
        76.61861419677734,
        29.410953521728516,
        -44.89292907714844
      ],
      "min": [
        -76.0683822631836,
        -22.64634132385254,
        -85.19254302978516
      ],
      "type": "VEC3"
    },
    {
      "bufferView": 4,
      "componentType": 5126,
      "count": 2560,
      "max": [
        0.9923266172409058,
        0.999974250793457,
        0.9999998807907104
      ],
      "min": [
        -0.9956150054931641,
        -0.9999855160713196,
        -1
      ],
      "type": "VEC3"
    },
    {
      "bufferView": 5,
      "componentType": 5125,
      "count": 3840,
      "max": [
        2559
      ],
      "min": [
        0
      ],
      "type": "SCALAR"
    }
  ],
  "meshes": [
    {
      "primitives": [
        {
          "mode": 4,
          "attributes": {
            "POSITION": 0,
            "NORMAL": 1
          },
          "extras": {
            "type": "SubdivGeometry",
            "parameters": {
              "width": 155,
              "height": 63.68280220031738,
              "depth": 45.76384353637695
            }
          },
          "indices": 2
        }
      ]
    },
    {
      "primitives": [
        {
          "mode": 4,
          "attributes": {
            "POSITION": 3,
            "NORMAL": 4
          },
          "extras": {
            "type": "SubdivGeometry",
            "parameters": {
              "width": 161.0710220336914,
              "height": 65.73259735107422,
              "depth": 55.3756217956543
            }
          },
          "indices": 5
        }
      ]
    }
  ],
  "cameras": [
    {
      "type": "perspective",
      "perspective": {
        "aspectRatio": 1.8584070796460177,
        "yfov": 0.7853981633974483,
        "zfar": 100000,
        "znear": 70
      }
    }
  ]
}