{
  "asset": {
    "version": "2.0",
    "generator": "THREE.GLTFExporter"
  },
  "scenes": [
    {
      "nodes": [
        0
      ]
    }
  ],
  "scene": 0,
  "nodes": [
    {
      "children": [
        10
      ],
      "matrix": [
        0.01,
        0,
        0,
        0,
        0,
        0.01,
        0,
        0,
        0,
        0,
        0.01,
        0,
        0,
        0,
        0,
        1
      ]
    },
    {
      "matrix": [
        -0.060457977955021544,
        -0.06872969481209938,
        0.03268950673464632,
        0,
        0.32991108007587877,
        -0.3750487299726484,
        -0.1783822555560532,
        0,
        0.2522706050940736,
        -1.965822107672462e-16,
        0.46656472382046343,
        0,
        63.92810699632166,
        -104.31325950035708,
        65.35573650155878,
        1
      ],
      "name": "Rectangle 4",
      "mesh": 0
    },
    {
      "matrix": [
        -0.06045797795502153,
        0.06872969481209945,
        0.03268950673464634,
        0,
        -0.32991108007587877,
        -0.3750487299726483,
        0.17838225555605317,
        0,
        0.2522706050940733,
        -8.909448012268793e-17,
        0.466564723820463,
        0,
        63.928106996321695,
        -104.31325950035709,
        65.35573650155878,
        1
      ],
      "name": "Rectangle 3",
      "mesh": 1
    },
    {
      "matrix": [
        -1.1952588606964125,
        6.247096042181871e-16,
        0.6467566528970259,
        0,
        -0.646756652897026,
        -4.541261217922198e-16,
        -1.195258860696412,
        0,
        -2.951437201084818e-16,
        -1.3590209388158303,
        5.724256737936141e-16,
        0,
        61.72518418522066,
        -104.96890529689566,
        60.67810648917517,
        1
      ],
      "name": "Cylinder 2",
      "mesh": 2
    },
    {
      "matrix": [
        -2.5427952557431106,
        7.996779322077323e-16,
        -3.2977218642735696e-31,
        0,
        7.996779322077236e-16,
        2.5427952557430786,
        6.228052141665679e-16,
        0,
        3.709937097307766e-31,
        4.288302770552234e-16,
        -1.7508324741214831,
        0,
        12.978740402940897,
        -103.98842056629668,
        15.612021009700058,
        1
      ],
      "name": "Cylinder 2",
      "mesh": 3
    },
    {
      "matrix": [
        -2.1880655380630696,
        6.614850837457904e-16,
        -2.473291398205177e-31,
        0,
        6.614850837457849e-16,
        2.1880655380630487,
        5.35921491502709e-16,
        0,
        2.4732913982051765e-31,
        3.6900680413939125e-16,
        -1.506584610339519,
        0,
        12.97874040294084,
        -88.83821602300655,
        18.405381096941166,
        0.9999999999999997
      ],
      "name": "Cylinder 2",
      "mesh": 4
    },
    {
      "matrix": [
        -1.6721436402528589,
        2.0477853567502684e-16,
        2.976011541694891e-16,
        0,
        2.0477853567502674e-16,
        1.6721436402528602,
        2.0477853567502676e-16,
        0,
        -2.976011541694891e-16,
        2.047785356750267e-16,
        -1.6721436402528584,
        0,
        19.42662041251185,
        -5.504401982066252,
        4.4571306392124,
        1
      ],
      "name": "hand-4",
      "mesh": 5
    },
    {
      "matrix": [
        1,
        0,
        0,
        0,
        0,
        1,
        0,
        0,
        0,
        0,
        1,
        0,
        -4.023571757629668,
        0,
        3.1214815881125055,
        1
      ],
      "name": "Hand-04",
      "children": [
        1,
        2,
        3,
        4,
        5,
        6
      ]
    },
    {
      "matrix": [
        0.9999999999999999,
        1.4901161129962856e-12,
        -1.4901161119341852e-8,
        0,
        -1.490116119384766e-8,
        0.00009999999957110983,
        -0.999999995,
        0,
        0,
        0.999999995,
        0.00009999999957122085,
        0,
        0,
        999.9999949999999,
        0.09999999956015455,
        1
      ],
      "camera": 0
    },
    {
      "matrix": [
        1,
        0,
        0,
        0,
        0,
        1,
        0,
        0,
        0,
        0,
        1,
        0,
        0,
        1,
        0,
        1
      ],
      "name": "Default Ambient Light"
    },
    {
      "name": "Scene 1",
      "children": [
        7,
        8,
        9
      ]
    }
  ],
  "bufferViews": [
    {
      "buffer": 0,
      "byteOffset": 0,
      "byteLength": 288,
      "target": 34962,
      "byteStride": 12
    },
    {
      "buffer": 0,
      "byteOffset": 288,
      "byteLength": 288,
      "target": 34962,
      "byteStride": 12
    },
    {
      "buffer": 0,
      "byteOffset": 576,
      "byteLength": 192,
      "target": 34962,
      "byteStride": 8
    },
    {
      "buffer": 0,
      "byteOffset": 768,
      "byteLength": 144,
      "target": 34963
    },
    {
      "buffer": 0,
      "byteOffset": 912,
      "byteLength": 288,
      "target": 34962,
      "byteStride": 12
    },
    {
      "buffer": 0,
      "byteOffset": 1200,
      "byteLength": 288,
      "target": 34962,
      "byteStride": 12
    },
    {
      "buffer": 0,
      "byteOffset": 1488,
      "byteLength": 192,
      "target": 34962,
      "byteStride": 8
    },
    {
      "buffer": 0,
      "byteOffset": 1680,
      "byteLength": 144,
      "target": 34963
    },
    {
      "buffer": 0,
      "byteOffset": 1824,
      "byteLength": 12480,
      "target": 34962,
      "byteStride": 12
    },
    {
      "buffer": 0,
      "byteOffset": 14304,
      "byteLength": 12480,
      "target": 34962,
      "byteStride": 12
    },
    {
      "buffer": 0,
      "byteOffset": 26784,
      "byteLength": 8320,
      "target": 34962,
      "byteStride": 8
    },
    {
      "buffer": 0,
      "byteOffset": 35104,
      "byteLength": 11136,
      "target": 34963
    },
    {
      "buffer": 0,
      "byteOffset": 46240,
      "byteLength": 4536,
      "target": 34962,
      "byteStride": 12
    },
    {
      "buffer": 0,
      "byteOffset": 50776,
      "byteLength": 4536,
      "target": 34962,
      "byteStride": 12
    },
    {
      "buffer": 0,
      "byteOffset": 55312,
      "byteLength": 3024,
      "target": 34962,
      "byteStride": 8
    },
    {
      "buffer": 0,
      "byteOffset": 58336,
      "byteLength": 3900,
      "target": 34963
    },
    {
      "buffer": 0,
      "byteOffset": 62236,
      "byteLength": 4536,
      "target": 34962,
      "byteStride": 12
    },
    {
      "buffer": 0,
      "byteOffset": 66772,
      "byteLength": 4536,
      "target": 34962,
      "byteStride": 12
    },
    {
      "buffer": 0,
      "byteOffset": 71308,
      "byteLength": 3024,
      "target": 34962,
      "byteStride": 8
    },
    {
      "buffer": 0,
      "byteOffset": 74332,
      "byteLength": 3900,
      "target": 34963
    },
    {
      "buffer": 0,
      "byteOffset": 78232,
      "byteLength": 89088,
      "target": 34962,
      "byteStride": 12
    },
    {
      "buffer": 0,
      "byteOffset": 167320,
      "byteLength": 89088,
      "target": 34962,
      "byteStride": 12
    },
    {
      "buffer": 0,
      "byteOffset": 256408,
      "byteLength": 44544,
      "target": 34963
    }
  ],
  "buffers": [
    {
      "byteLength": 300952,
      "uri": "data:application/octet-stream;base64,"
    }
  ],
  "accessors": [
    {
      "bufferView": 0,
      "componentType": 5126,
      "count": 24,
      "max": [
        9.5,
        9.5,
        3
      ],
      "min": [
        -9.5,
        -9.5,
        0
      ],
      "type": "VEC3"
    },
    {
      "bufferView": 1,
      "componentType": 5126,
      "count": 24,
      "max": [
        1,
        1,
        1
      ],
      "min": [
        -1,
        -1,
        -1
      ],
      "type": "VEC3"
    },
    {
      "bufferView": 2,
      "componentType": 5126,
      "count": 24,
      "max": [
        1,
        1
      ],
      "min": [
        0,
        0
      ],
      "type": "VEC2"
    },
    {
      "bufferView": 3,
      "componentType": 5125,
      "count": 36,
      "max": [
        23
      ],
      "min": [
        0
      ],
      "type": "SCALAR"
    },
    {
      "bufferView": 4,
      "componentType": 5126,
      "count": 24,
      "max": [
        9.5,
        9.5,
        3
      ],
      "min": [
        -9.5,
        -9.5,
        0
      ],
      "type": "VEC3"
    },
    {
      "bufferView": 5,
      "componentType": 5126,
      "count": 24,
      "max": [
        1,
        1,
        1
      ],
      "min": [
        -1,
        -1,
        -1
      ],
      "type": "VEC3"
    },
    {
      "bufferView": 6,
      "componentType": 5126,
      "count": 24,
      "max": [
        1,
        1
      ],
      "min": [
        0,
        0
      ],
      "type": "VEC2"
    },
    {
      "bufferView": 7,
      "componentType": 5125,
      "count": 36,
      "max": [
        23
      ],
      "min": [
        0
      ],
      "type": "SCALAR"
    },
    {
      "bufferView": 8,
      "componentType": 5126,
      "count": 1040,
      "max": [
        12,
        4,
        12
      ],
      "min": [
        -12,
        -4,
        -12
      ],
      "type": "VEC3"
    },
    {
      "bufferView": 9,
      "componentType": 5126,
      "count": 1040,
      "max": [
        1,
        1,
        1
      ],
      "min": [
        -1,
        -1,
        -1
      ],
      "type": "VEC3"
    },
    {
      "bufferView": 10,
      "componentType": 5126,
      "count": 1040,
      "max": [
        1,
        1
      ],
      "min": [
        0,
        0
      ],
      "type": "VEC2"
    },
    {
      "bufferView": 11,
      "componentType": 5123,
      "count": 5568,
      "max": [
        1038
      ],
      "min": [
        0
      ],
      "type": "SCALAR"
    },
    {
      "bufferView": 12,
      "componentType": 5126,
      "count": 378,
      "max": [
        31.76668357849121,
        11,
        32
      ],
      "min": [
        -31.76668357849121,
        -11,
        -32
      ],
      "type": "VEC3"
    },
    {
      "bufferView": 13,
      "componentType": 5126,
      "count": 378,
      "max": [
        0.9927088618278503,
        1,
        1
      ],
      "min": [
        -0.9927088618278503,
        -1,
        -1
      ],
      "type": "VEC3"
    },
    {
      "bufferView": 14,
      "componentType": 5126,
      "count": 378,
      "max": [
        1,
        1
      ],
      "min": [
        0,
        0
      ],
      "type": "VEC2"
    },
    {
      "bufferView": 15,
      "componentType": 5123,
      "count": 1950,
      "max": [
        376
      ],
      "min": [
        0
      ],
      "type": "SCALAR"
    },
    {
      "bufferView": 16,
      "componentType": 5126,
      "count": 378,
      "max": [
        31.76668357849121,
        15,
        32
      ],
      "min": [
        -31.76668357849121,
        -15,
        -32
      ],
      "type": "VEC3"
    },
    {
      "bufferView": 17,
      "componentType": 5126,
      "count": 378,
      "max": [
        0.9927088618278503,
        1,
        1
      ],
      "min": [
        -0.9927088618278503,
        -1,
        -1
      ],
      "type": "VEC3"
    },
    {
      "bufferView": 18,
      "componentType": 5126,
      "count": 378,
      "max": [
        1,
        1
      ],
      "min": [
        0,
        0
      ],
      "type": "VEC2"
    },
    {
      "bufferView": 19,
      "componentType": 5123,
      "count": 1950,
      "max": [
        376
      ],
      "min": [
        0
      ],
      "type": "SCALAR"
    },
    {
      "bufferView": 20,
      "componentType": 5126,
      "count": 7424,
      "max": [
        88.07466888427734,
        84.01187133789062,
        41.71478271484375
      ],
      "min": [
        -64.97526550292969,
        -40.25165939331055,
        -32.05940246582031
      ],
      "type": "VEC3"
    },
    {
      "bufferView": 21,
      "componentType": 5126,
      "count": 7424,
      "max": [
        0.9999997615814209,
        0.9997740387916565,
        0.9998775124549866
      ],
      "min": [
        -0.9999804496765137,
        -0.9999778866767883,
        -0.9999995231628418
      ],
      "type": "VEC3"
    },
    {
      "bufferView": 22,
      "componentType": 5125,
      "count": 11136,
      "max": [
        7423
      ],
      "min": [
        0
      ],
      "type": "SCALAR"
    }
  ],
  "meshes": [
    {
      "primitives": [
        {
          "mode": 4,
          "attributes": {
            "POSITION": 0,
            "NORMAL": 1,
            "TEXCOORD_0": 2
          },
          "extras": {
            "shape": {
              "points": [
                -9.5,
                9.5,
                -9.5,
                9.5,
                -9.5,
                9.5,
                0,
                9.5,
                9.5,
                9.5,
                9.5,
                9.5,
                9.5,
                0,
                9.5,
                -9.5,
                9.5,
                -9.5,
                9.5,
                -9.5,
                0,
                -9.5,
                -9.5,
                -9.5,
                -9.5,
                -9.5,
                -9.5,
                0
              ],
              "shapeHoles": [],
              "isClosed": true,
              "roundness": 0
            },
            "parameters": {
              "width": 19,
              "depth": 3,
              "cornerRadius": [
                0,
                0,
                0,
                0
              ],
              "cornerType": 1,
              "extrudeBevelSize": 0,
              "extrudeBevelSegments": 1,
              "extrudeDepth": 0,
              "surfaceMaxCount": 1000,
              "height": 19,
              "type": "RectangleGeometry"
            },
            "ui": {
              "enabledIndieCorners": false
            },
            "type": "RectangleGeometry"
          },
          "indices": 3
        }
      ]
    },
    {
      "primitives": [
        {
          "mode": 4,
          "attributes": {
            "POSITION": 4,
            "NORMAL": 5,
            "TEXCOORD_0": 6
          },
          "extras": {
            "shape": {
              "points": [
                -9.5,
                9.5,
                -9.5,
                9.5,
                -9.5,
                9.5,
                0,
                9.5,
                9.5,
                9.5,
                9.5,
                9.5,
                9.5,
                0,
                9.5,
                -9.5,
                9.5,
                -9.5,
                9.5,
                -9.5,
                0,
                -9.5,
                -9.5,
                -9.5,
                -9.5,
                -9.5,
                -9.5,
                0
              ],
              "shapeHoles": [],
              "isClosed": true,
              "roundness": 0
            },
            "parameters": {
              "width": 19,
              "depth": 3,
              "cornerRadius": [
                0,
                0,
                0,
                0
              ],
              "cornerType": 1,
              "extrudeBevelSize": 0,
              "extrudeBevelSegments": 1,
              "extrudeDepth": 0,
              "surfaceMaxCount": 1000,
              "height": 19,
              "type": "RectangleGeometry"
            },
            "ui": {
              "enabledIndieCorners": false
            },
            "type": "RectangleGeometry"
          },
          "indices": 7
        }
      ]
    },
    {
      "primitives": [
        {
          "mode": 4,
          "attributes": {
            "POSITION": 8,
            "NORMAL": 9,
            "TEXCOORD_0": 10
          },
          "extras": {
            "parameters": {
              "width": 24,
              "radialSegments": 64,
              "heightSegments": 1,
              "openEnded": false,
              "thetaStart": 0,
              "thetaLength": 360,
              "cornerRadius": 1,
              "cornerSegments": 4,
              "hollow": 0,
              "height": 8,
              "depth": 24,
              "radiusTop": 12,
              "radiusBottom": 12,
              "type": "CylinderGeometry"
            },
            "type": "CylinderGeometry"
          },
          "indices": 11
        }
      ]
    },
    {
      "primitives": [
        {
          "mode": 4,
          "attributes": {
            "POSITION": 12,
            "NORMAL": 13,
            "TEXCOORD_0": 14
          },
          "extras": {
            "parameters": {
              "width": 64,
              "radialSegments": 26,
              "heightSegments": 1,
              "openEnded": false,
              "thetaStart": 0,
              "thetaLength": 360,
              "cornerRadius": 4,
              "cornerSegments": 3,
              "hollow": 0,
              "height": 22,
              "depth": 64,
              "radiusTop": 32,
              "radiusBottom": 32,
              "type": "CylinderGeometry"
            },
            "type": "CylinderGeometry"
          },
          "indices": 15
        }
      ]
    },
    {
      "primitives": [
        {
          "mode": 4,
          "attributes": {
            "POSITION": 16,
            "NORMAL": 17,
            "TEXCOORD_0": 18
          },
          "extras": {
            "parameters": {
              "width": 64,
              "radialSegments": 26,
              "heightSegments": 1,
              "openEnded": false,
              "thetaStart": 0,
              "thetaLength": 360,
              "cornerRadius": 4,
              "cornerSegments": 3,
              "hollow": 0,
              "height": 30,
              "depth": 64,
              "radiusTop": 32,
              "radiusBottom": 32,
              "type": "CylinderGeometry"
            },
            "type": "CylinderGeometry"
          },
          "indices": 19
        }
      ]
    },
    {
      "primitives": [
        {
          "mode": 4,
          "attributes": {
            "POSITION": 20,
            "NORMAL": 21
          },
          "extras": {
            "type": "SubdivGeometry",
            "parameters": {
              "width": 157.8390884399414,
              "height": 127.54182434082031,
              "depth": 79.35893630981445
            }
          },
          "indices": 22
        }
      ]
    }
  ],
  "cameras": [
    {
      "type": "perspective",
      "perspective": {
        "aspectRatio": 1.8584070796460177,
        "yfov": 0.7853981633974483,
        "zfar": 100000,
        "znear": 70
      }
    }
  ]
}